<svg width="70" height="58" viewBox="0 0 70 58" fill="none" xmlns="http://www.w3.org/2000/svg">
<g clip-path="url(#clip0_218_12)">
<path d="M65.9403 41.738C66.318 42.4288 66.6974 43.007 66.9571 43.6323C67.1568 44.1123 67.4654 44.9631 67.2803 45.1195C65.8804 46.2957 68.1245 48.1537 66.4778 49.1682C65.0326 50.059 64.6749 51.3789 64.7421 52.9497C64.782 53.8823 64.7421 54.8204 64.7021 55.7548C64.6222 57.6092 63.8833 58.3528 62.0386 57.8419C60.0342 57.2874 57.9735 56.5639 56.2487 55.4403C50.0993 51.4316 47.0709 45.6249 47.2598 38.2765C47.3088 36.3367 47.7881 34.395 48.1893 32.4788C48.4308 31.328 49.2987 30.839 50.4915 30.879C51.4047 30.9099 54.3932 30.8481 55.8366 31.6698C57.6576 32.7079 58.7143 31.7207 60.2685 30.7936C59.5059 29.4973 58.5291 28.841 57.1057 28.8537C55.2356 28.8701 53.3656 28.821 51.4955 28.8192C50.0503 28.8192 49.0917 28.3992 48.9047 26.7121C48.6614 24.5032 48.449 23.2943 48.0786 22.8798C47.7082 22.4652 44.3112 22.2235 43.999 22.7561C43.6867 23.2888 43.4234 27.0048 43.4379 28.5301C43.447 29.4882 43.0204 30.0809 42.0654 30.0736C38.574 30.0482 34.6832 29.9591 31.5949 29.8591C31.0429 29.8409 30.6544 29.2573 30.6163 28.6938C30.5473 27.6666 30.402 21.3163 30.3548 17.6275C30.3403 16.5531 30.9394 16.0404 32.0469 16.0731C37.7479 16.2404 43.4543 16.3167 49.1516 16.5713C52.0674 16.7003 53.1259 18.822 53.2022 20.7254C53.2784 22.6289 54.0537 23.8051 54.4168 24.3087C55.9165 18.5856 53.7541 14.7132 48.7395 14.4096C46.2376 14.2587 43.7339 14.0806 41.2447 13.8024C40.8544 13.7588 40.257 13.137 40.2207 12.7389C39.9847 10.1937 39.8576 7.63755 39.7723 5.08143C39.7559 4.58693 40.0918 4.0088 40.6383 3.93426C43.6268 3.52885 51.7933 4.11788 56.9895 6.61765C60.9729 8.53565 62.3891 12.1426 62.8266 16.0713C63.2714 20.0527 63.0281 24.1069 63.2515 28.1193C63.3186 29.3137 63.6745 30.6827 64.3789 31.6062C65.6154 33.2242 67.2113 34.5696 68.6746 36.0112C70.5084 37.8183 70.4612 38.551 68.3696 40.04C67.6107 40.5799 66.8427 41.1071 65.9385 41.738H65.9403Z" fill="white"/>
<path d="M35.1734 13.8477C34.0005 13.8459 32.9493 13.8422 31.8999 13.855C31.3026 13.8622 30.7052 13.9077 30.1133 13.9931C27.6096 14.3549 27.4662 14.5804 27.4117 17.1856C27.4045 17.5292 27.399 17.8728 27.3936 18.2182C27.3428 21.767 27.3337 21.7924 23.8496 21.6288C21.5492 21.5215 19.2434 21.4179 16.9576 21.1561C16.4329 21.0961 15.6449 20.4544 15.5541 19.9708C14.8479 16.2184 15.0984 12.5406 16.9957 9.12451C18.8385 5.80482 22.0158 4.53949 25.5018 4.07044C28.4103 3.67957 32.2975 3.52686 34.3074 3.52686C35.1371 3.52686 35.5601 3.76501 35.5801 4.34496C35.6164 5.38668 35.9614 9.54811 36.1883 12.7624C36.2301 13.3496 35.7635 13.8477 35.1752 13.8477H35.1734Z" fill="white"/>
<path d="M9.38841 8.17194C10.6684 8.18103 11.509 8.85552 11.5907 10.0899C11.7196 12.0425 11.765 14.0168 11.6361 15.9676C11.5362 17.502 10.6266 18.1965 9.06705 18.2201C6.90105 18.2528 4.73505 18.251 2.57087 18.2128C1.03489 18.1855 0.159773 17.4056 0.0780715 15.8803C-0.0181547 14.0641 -0.0217859 12.2388 0.0453909 10.4208C0.0962274 9.01914 1.01673 8.23739 2.44923 8.19194C3.0393 8.17376 8.20827 8.16467 9.38841 8.17194Z" fill="white"/>
<path d="M26.5512 25.6377C27.4789 25.6922 28.0744 26.0976 28.118 27.0448C28.236 29.6464 28.3395 32.248 28.354 34.8514C28.354 35.1313 28.1071 35.5913 27.4081 35.6604C26.7091 35.7295 21.9541 36.0131 19.2053 33.746C16.4565 31.4789 16.215 27.6538 16.5182 25.8249C16.5727 25.5577 17.0992 25.3541 17.4133 25.3377C19.8226 25.3286 24.6375 25.5286 26.5512 25.6395V25.6377Z" fill="white"/>
<path d="M42.8551 38.1255C42.8551 39.1091 42.8225 40.0944 42.8642 41.0762C42.9078 42.1033 42.1816 42.5197 41.33 42.4669C39.3946 42.3288 36.9509 42.2797 34.9973 41.1198C33.3233 40.1253 32.7605 38.5837 32.6134 37.8983C32.3719 36.7784 32.2539 35.5803 32.214 34.4077C32.1831 33.4842 32.637 32.6824 33.6465 32.7079C36.2446 32.7697 38.8463 32.9042 41.4372 33.1224C42.3559 33.1987 42.8878 33.8768 42.8715 34.8786C42.8551 35.9603 42.8679 37.0438 42.8679 38.1255H42.8533H42.8551Z" fill="white"/>
<path d="M22.0794 0.00920912C23.1451 0.0455693 24.4124 0.232824 24.7465 1.15456C24.997 1.83995 23.7733 2.53261 23.3358 2.65805C20.754 3.39798 17.1882 3.86521 15.2909 8.50659C14.7952 9.63558 13.9837 9.41742 13.3591 8.23753C12.9542 7.41579 13.1848 3.81976 13.4626 1.65451C13.5425 1.0273 13.8584 0.121926 15.6122 0.0801115C17.3661 0.0382973 21.0517 -0.0235151 22.0794 0.00920912Z" fill="white"/>
</g>
<defs>
<clipPath id="clip0_218_12">
<rect width="70" height="58" fill="white"/>
</clipPath>
</defs>
</svg>
