<svg width="110" height="110" viewBox="0 0 110 110" fill="none" xmlns="http://www.w3.org/2000/svg">
<g id="fi-rr-screen" clip-path="url(#clip0_234_37)">
<path id="Vector" d="M87.0833 13.75H22.9166C16.841 13.7573 11.0162 16.174 6.72011 20.4702C2.42398 24.7663 0.00721665 30.591 -6.10352e-05 36.6667L-6.10352e-05 64.1667C0.00721665 70.2423 2.42398 76.067 6.72011 80.3632C11.0162 84.6593 16.841 87.0761 22.9166 87.0833H50.4166V91.6667H36.6666C35.451 91.6667 34.2852 92.1496 33.4257 93.0091C32.5662 93.8686 32.0833 95.0344 32.0833 96.25C32.0833 97.4656 32.5662 98.6314 33.4257 99.4909C34.2852 100.35 35.451 100.833 36.6666 100.833H73.3333C74.5489 100.833 75.7146 100.35 76.5742 99.4909C77.4337 98.6314 77.9166 97.4656 77.9166 96.25C77.9166 95.0344 77.4337 93.8686 76.5742 93.0091C75.7146 92.1496 74.5489 91.6667 73.3333 91.6667H59.5833V87.0833H87.0833C93.1589 87.0761 98.9836 84.6593 103.28 80.3632C107.576 76.067 109.993 70.2423 110 64.1667V36.6667C109.993 30.591 107.576 24.7663 103.28 20.4702C98.9836 16.174 93.1589 13.7573 87.0833 13.75ZM100.833 64.1667C100.833 67.8134 99.3846 71.3108 96.806 73.8894C94.2274 76.468 90.73 77.9167 87.0833 77.9167H22.9166C19.2699 77.9167 15.7725 76.468 13.1939 73.8894C10.6153 71.3108 9.16661 67.8134 9.16661 64.1667V36.6667C9.16661 33.0199 10.6153 29.5226 13.1939 26.9439C15.7725 24.3653 19.2699 22.9167 22.9166 22.9167H87.0833C90.73 22.9167 94.2274 24.3653 96.806 26.9439C99.3846 29.5226 100.833 33.0199 100.833 36.6667V64.1667Z" fill="white"/>
</g>
<defs>
<clipPath id="clip0_234_37">
<rect width="110" height="110" fill="white"/>
</clipPath>
</defs>
</svg>
