<svg width="110" height="110" viewBox="0 0 110 110" fill="none" xmlns="http://www.w3.org/2000/svg">
<path id="Vector" d="M55 73.3333C51.374 73.3333 47.8294 72.2581 44.8145 70.2436C41.7996 68.2291 39.4498 65.3659 38.0622 62.0159C36.6746 58.6659 36.3115 54.9797 37.0189 51.4234C37.7263 47.867 39.4724 44.6003 42.0364 42.0364C44.6003 39.4724 47.867 37.7263 51.4233 37.0189C54.9797 36.3116 58.6659 36.6746 62.0159 38.0622C65.3658 39.4498 68.2291 41.7997 70.2436 44.8146C72.2581 47.8295 73.3333 51.374 73.3333 55C73.3333 59.8623 71.4018 64.5255 67.9636 67.9636C64.5255 71.4018 59.8623 73.3333 55 73.3333ZM55 45.8333C53.187 45.8333 51.4147 46.371 49.9073 47.3782C48.3998 48.3855 47.2249 49.8171 46.5311 51.4921C45.8373 53.1671 45.6558 55.0102 46.0095 56.7883C46.3632 58.5665 47.2362 60.1998 48.5182 61.4818C49.8002 62.7638 51.4335 63.6368 53.2117 63.9905C54.9898 64.3442 56.8329 64.1627 58.5079 63.4689C60.1829 62.7751 61.6146 61.6002 62.6218 60.0927C63.6291 58.5853 64.1667 56.813 64.1667 55C64.1667 52.5689 63.2009 50.2373 61.4818 48.5182C59.7627 46.7991 57.4312 45.8333 55 45.8333ZM82.5 105.417C82.5 98.1232 79.6027 91.1285 74.4454 85.9712C69.2882 80.814 62.2935 77.9167 55 77.9167C47.7065 77.9167 40.7118 80.814 35.5546 85.9712C30.3973 91.1285 27.5 98.1232 27.5 105.417C27.5 106.632 27.9829 107.798 28.8424 108.658C29.702 109.517 30.8678 110 32.0833 110C33.2989 110 34.4647 109.517 35.3242 108.658C36.1838 107.798 36.6667 106.632 36.6667 105.417C36.6667 100.554 38.5982 95.8912 42.0364 92.4531C45.4745 89.0149 50.1377 87.0833 55 87.0833C59.8623 87.0833 64.5255 89.0149 67.9636 92.4531C71.4018 95.8912 73.3333 100.554 73.3333 105.417C73.3333 106.632 73.8162 107.798 74.6758 108.658C75.5353 109.517 76.7011 110 77.9167 110C79.1322 110 80.298 109.517 81.1576 108.658C82.0171 107.798 82.5 106.632 82.5 105.417ZM82.5 36.6667C78.874 36.6667 75.3295 35.5914 72.3146 33.577C69.2997 31.5625 66.9498 28.6992 65.5622 25.3492C64.1746 21.9992 63.8115 18.313 64.5189 14.7567C65.2263 11.2004 66.9724 7.93368 69.5364 5.36972C72.1003 2.80575 75.367 1.05967 78.9233 0.352278C82.4797 -0.355118 86.1659 0.00794349 89.5159 1.39555C92.8658 2.78316 95.7291 5.13299 97.7436 8.14789C99.7581 11.1628 100.833 14.7074 100.833 18.3333C100.833 23.1956 98.9018 27.8588 95.4636 31.297C92.0255 34.7351 87.3623 36.6667 82.5 36.6667ZM82.5 9.16668C80.687 9.16668 78.9147 9.70429 77.4073 10.7115C75.8998 11.7188 74.7249 13.1504 74.0311 14.8254C73.3373 16.5004 73.1558 18.3435 73.5095 20.1217C73.8632 21.8998 74.7362 23.5332 76.0182 24.8152C77.3002 26.0971 78.9335 26.9702 80.7117 27.3239C82.4898 27.6776 84.3329 27.496 86.0079 26.8022C87.6829 26.1084 89.1146 24.9335 90.1218 23.4261C91.1291 21.9186 91.6667 20.1463 91.6667 18.3333C91.6667 15.9022 90.7009 13.5706 88.9818 11.8515C87.2627 10.1324 84.9312 9.16668 82.5 9.16668ZM110 68.75C109.993 61.4588 107.093 54.4683 101.937 49.3126C96.7817 44.1569 89.7912 41.2573 82.5 41.25C81.2844 41.25 80.1186 41.7329 79.2591 42.5924C78.3996 43.452 77.9167 44.6178 77.9167 45.8333C77.9167 47.0489 78.3996 48.2147 79.2591 49.0742C80.1186 49.9338 81.2844 50.4167 82.5 50.4167C87.3623 50.4167 92.0255 52.3482 95.4636 55.7864C98.9018 59.2246 100.833 63.8877 100.833 68.75C100.833 69.9656 101.316 71.1314 102.176 71.9909C103.035 72.8505 104.201 73.3333 105.417 73.3333C106.632 73.3333 107.798 72.8505 108.658 71.9909C109.517 71.1314 110 69.9656 110 68.75ZM27.5 36.6667C23.874 36.6667 20.3294 35.5914 17.3145 33.577C14.2996 31.5625 11.9498 28.6992 10.5622 25.3492C9.1746 21.9992 8.81154 18.313 9.51894 14.7567C10.2263 11.2004 11.9724 7.93368 14.5364 5.36972C17.1003 2.80575 20.367 1.05967 23.9233 0.352278C27.4797 -0.355118 31.1659 0.00794349 34.5159 1.39555C37.8658 2.78316 40.7291 5.13299 42.7436 8.14789C44.7581 11.1628 45.8333 14.7074 45.8333 18.3333C45.8333 23.1956 43.9018 27.8588 40.4636 31.297C37.0255 34.7351 32.3623 36.6667 27.5 36.6667ZM27.5 9.16668C25.687 9.16668 23.9147 9.70429 22.4073 10.7115C20.8998 11.7188 19.7249 13.1504 19.0311 14.8254C18.3373 16.5004 18.1558 18.3435 18.5095 20.1217C18.8632 21.8998 19.7362 23.5332 21.0182 24.8152C22.3002 26.0971 23.9335 26.9702 25.7117 27.3239C27.4898 27.6776 29.3329 27.496 31.0079 26.8022C32.6829 26.1084 34.1146 24.9335 35.1218 23.4261C36.1291 21.9186 36.6667 20.1463 36.6667 18.3333C36.6667 15.9022 35.7009 13.5706 33.9818 11.8515C32.2627 10.1324 29.9312 9.16668 27.5 9.16668ZM9.16667 68.75C9.16667 63.8877 11.0982 59.2246 14.5364 55.7864C17.9745 52.3482 22.6377 50.4167 27.5 50.4167C28.7156 50.4167 29.8814 49.9338 30.7409 49.0742C31.6004 48.2147 32.0833 47.0489 32.0833 45.8333C32.0833 44.6178 31.6004 43.452 30.7409 42.5924C29.8814 41.7329 28.7156 41.25 27.5 41.25C20.2088 41.2573 13.2183 44.1569 8.0626 49.3126C2.90693 54.4683 0.0072803 61.4588 0 68.75C0 69.9656 0.482886 71.1314 1.34243 71.9909C2.20197 72.8505 3.36776 73.3333 4.58333 73.3333C5.79891 73.3333 6.9647 72.8505 7.82424 71.9909C8.68378 71.1314 9.16667 69.9656 9.16667 68.75Z" fill="#2B2D42"/>
</svg>
