<?xml version="1.0" encoding="UTF-8"?>
<svg id="Calque_2" data-name="Calque 2" xmlns="http://www.w3.org/2000/svg" viewBox="0 0 173.71 349.9">
  <defs>
    <style>
      .cls-1 {
        fill: #ef233c;
        stroke-width: 0px;
      }
    </style>
  </defs>
  <g id="Calque_2-2" data-name="Calque 2">
    <path class="cls-1" d="m154.88,100.49c-2.87-4.26-3.26-14.38-4.61-19.58-1.63-6.26-3.43-12.47-5.46-18.61-4.37-13.22-9.64-26.42-17.16-38.2C116.65,6.87,97.93-5.59,77.26,2.55c-21.9,8.62-39.05,34.02-48.89,54.53-4.92,10.26-8.16,20.87-10.84,31.9-2.41,9.93-2.16,21.68-6.84,30.89-22.24,43.76-2.87,83.22-2.87,83.22,5.02-10.04,15.06-19.37,15.06-19.37,9.62,24.04,22.7,46.74,37.31,68.07,5.34,7.79,10.34,10.69,5.96,19.67-7.25,14.88-15.8,29.2-23.8,43.69-6.05,10.97-15.01,22.92-18.74,34.76,19.28-11.23,37.65-28.95,60.25-32.04,15.78-2.15,54.52,27.26,54.52,27.26-5.74-30.85-33-83.93-33-83.93,10.53-10.53,17.45-25.29,23.97-38.52,1.82-3.69,17.92-41.4,19.63-40.99,7.09,1.71,12.75,14.31,15.94,20.68,0,0,2.15,2.87,7.89-34.43,5.74-37.3-17.93-67.43-17.93-67.43Zm-50.06-67.18c5.59,0,10.11,4.53,10.11,10.11s-4.53,10.11-10.11,10.11-10.11-4.53-10.11-10.11,4.53-10.11,10.11-10.11Zm-61.54,73.89s31.56,14.98,59.55,9.88c0,0-33.91,17.42-59.55-9.88Zm-6.53-17.21s57.07,16.34,102.58,0c0,0-52.01,38.63-102.58,0Z"/>
  </g>
</svg>