<svg width="110" height="110" viewBox="0 0 110 110" fill="none" xmlns="http://www.w3.org/2000/svg">
<g id="fi-rr-user-time" clip-path="url(#clip0_233_19)">
<path id="Vector" d="M77.9165 110C71.5711 110 65.3681 108.118 60.092 104.593C54.8159 101.067 50.7037 96.0567 48.2754 90.1942C45.8471 84.3317 45.2117 77.8809 46.4497 71.6573C47.6876 65.4337 50.7433 59.717 55.2302 55.2301C59.7171 50.7432 65.4338 47.6875 71.6574 46.4496C77.881 45.2116 84.3318 45.847 90.1943 48.2753C96.0568 50.7036 101.068 54.8158 104.593 60.0919C108.118 65.368 110 71.571 110 77.9164C109.99 86.4225 106.607 94.5774 100.592 100.592C94.5775 106.607 86.4226 109.99 77.9165 110ZM77.9165 54.9998C73.3841 54.9998 68.9534 56.3438 65.1847 58.8619C61.4161 61.38 58.4788 64.9591 56.7443 69.1466C55.0098 73.3341 54.556 77.9419 55.4402 82.3873C56.3245 86.8327 58.5071 90.916 61.712 94.121C64.917 97.3259 69.0003 99.5085 73.4457 100.393C77.8911 101.277 82.4989 100.823 86.6864 99.0887C90.8739 97.3542 94.4529 94.4169 96.9711 90.6483C99.4892 86.8796 100.833 82.4489 100.833 77.9164C100.826 71.8408 98.4092 66.0161 94.113 61.7199C89.8169 57.4238 83.9922 55.007 77.9165 54.9998ZM85.7403 85.7402C86.5995 84.8807 87.0822 83.7151 87.0822 82.4998C87.0822 81.2844 86.5995 80.1189 85.7403 79.2593L82.4999 76.0189V68.7498C82.4999 67.5342 82.017 66.3684 81.1575 65.5089C80.2979 64.6493 79.1321 64.1664 77.9165 64.1664C76.701 64.1664 75.5352 64.6493 74.6756 65.5089C73.8161 66.3684 73.3332 67.5342 73.3332 68.7498V77.9164C73.3335 79.1319 73.8165 80.2975 74.6761 81.1569L79.2595 85.7402C80.119 86.5994 81.2845 87.0821 82.4999 87.0821C83.7152 87.0821 84.8808 86.5994 85.7403 85.7402ZM9.16655 105.416C9.17812 96.995 11.9838 88.8154 17.1438 82.1599C22.3038 75.5044 29.5264 70.7492 37.6795 68.6398C38.2669 68.5068 38.8224 68.2593 39.3142 67.9116C39.8061 67.5639 40.2246 67.1228 40.5459 66.6133C40.8672 66.1039 41.0851 65.5361 41.187 64.9425C41.2889 64.3489 41.2729 63.741 41.1399 63.1535C41.0069 62.5661 40.7594 62.0106 40.4117 61.5188C40.064 61.0269 39.6229 60.6084 39.1134 60.2871C38.604 59.9657 38.0362 59.7479 37.4426 59.646C36.849 59.5441 36.2411 59.5601 35.6536 59.6931C25.4376 62.1999 16.3636 68.0747 9.89517 76.3699C3.42675 84.6652 -0.0590749 94.8975 -0.000118758 105.416C-0.000118758 106.632 0.482767 107.798 1.34231 108.657C2.20185 109.517 3.36764 110 4.58321 110C5.79879 110 6.96458 109.517 7.82412 108.657C8.68366 107.798 9.16655 106.632 9.16655 105.416ZM38.839 50.4164C33.8533 50.4164 28.9795 48.938 24.834 46.1681C20.6886 43.3981 17.4575 39.4611 15.5496 34.8549C13.6416 30.2487 13.1424 25.1801 14.1151 20.2902C15.0878 15.4003 17.4886 10.9086 21.0141 7.38312C24.5395 3.85767 29.0312 1.45681 33.9212 0.484138C38.8111 -0.488531 43.8796 0.0106783 48.4859 1.91864C53.0921 3.8266 57.0291 7.05761 59.799 11.2031C62.5689 15.3486 64.0474 20.2224 64.0474 25.2081C64.0401 31.8915 61.3819 38.2991 56.656 43.025C51.9301 47.7509 45.5225 50.4092 38.839 50.4164ZM38.839 9.16643C35.6663 9.16643 32.5648 10.1073 29.9268 11.8699C27.2887 13.6326 25.2326 16.138 24.0185 19.0692C22.8043 22.0005 22.4866 25.2259 23.1056 28.3377C23.7246 31.4495 25.2524 34.3078 27.4959 36.5513C29.7393 38.7947 32.5977 40.3226 35.7095 40.9415C38.8213 41.5605 42.0467 41.2428 44.9779 40.0287C47.9092 38.8145 50.4145 36.7584 52.1772 34.1204C53.9399 31.4823 54.8807 28.3808 54.8807 25.2081C54.8807 20.9536 53.1906 16.8733 50.1822 13.8649C47.1738 10.8565 43.0936 9.16643 38.839 9.16643Z" fill="white"/>
</g>
<defs>
<clipPath id="clip0_233_19">
<rect width="110" height="110" fill="white"/>
</clipPath>
</defs>
</svg>
